<?xml version="1.0" encoding="UTF-8"?>
<!-- Do not edit this file with editors other than draw.io -->
<!DOCTYPE svg PUBLIC "-//W3C//DTD SVG 1.1//EN" "http://www.w3.org/Graphics/SVG/1.1/DTD/svg11.dtd">
<svg xmlns="http://www.w3.org/2000/svg" style="background: transparent; background-color: transparent; color-scheme: light dark;" xmlns:xlink="http://www.w3.org/1999/xlink" version="1.1" width="490px" height="675px" viewBox="0 0 490 675" id="ge-svg-Do028WBLgQOT3RFSvhbW" content="&lt;mxfile host=&quot;app.diagrams.net&quot;&gt;&#xA;  &lt;diagram name=&quot;Page-1&quot; id=&quot;nqQMEo270JfwlLQQ_Hyf&quot;&gt;&#xA;    &lt;mxGraphModel dx=&quot;911&quot; dy=&quot;550&quot; grid=&quot;1&quot; gridSize=&quot;10&quot; guides=&quot;1&quot; tooltips=&quot;1&quot; connect=&quot;1&quot; arrows=&quot;1&quot; fold=&quot;1&quot; page=&quot;1&quot; pageScale=&quot;1&quot; pageWidth=&quot;850&quot; pageHeight=&quot;1100&quot; math=&quot;0&quot; shadow=&quot;0&quot;&gt;&#xA;      &lt;root&gt;&#xA;        &lt;mxCell id=&quot;0&quot; /&gt;&#xA;        &lt;mxCell id=&quot;1&quot; parent=&quot;0&quot; /&gt;&#xA;        &lt;mxCell id=&quot;eSsioj3msoAK2JKwmLl9-4&quot; edge=&quot;1&quot; parent=&quot;1&quot; source=&quot;eSsioj3msoAK2JKwmLl9-2&quot; style=&quot;edgeStyle=orthogonalEdgeStyle;rounded=0;orthogonalLoop=1;jettySize=auto;html=1;exitX=0.5;exitY=1;exitDx=0;exitDy=0;entryX=0.5;entryY=0;entryDx=0;entryDy=0;&quot; target=&quot;eSsioj3msoAK2JKwmLl9-3&quot;&gt;&#xA;          &lt;mxGeometry relative=&quot;1&quot; as=&quot;geometry&quot; /&gt;&#xA;        &lt;/mxCell&gt;&#xA;        &lt;mxCell id=&quot;eSsioj3msoAK2JKwmLl9-2&quot; parent=&quot;1&quot; style=&quot;image;html=1;image=img/lib/clip_art/networking/Router_Icon_128x128.png&quot; value=&quot;ISP&quot; vertex=&quot;1&quot;&gt;&#xA;          &lt;mxGeometry height=&quot;80&quot; width=&quot;80&quot; x=&quot;381&quot; y=&quot;80&quot; as=&quot;geometry&quot; /&gt;&#xA;        &lt;/mxCell&gt;&#xA;        &lt;mxCell id=&quot;eSsioj3msoAK2JKwmLl9-7&quot; edge=&quot;1&quot; parent=&quot;1&quot; source=&quot;eSsioj3msoAK2JKwmLl9-3&quot; style=&quot;edgeStyle=orthogonalEdgeStyle;rounded=0;orthogonalLoop=1;jettySize=auto;html=1;entryX=0.5;entryY=0;entryDx=0;entryDy=0;&quot; target=&quot;eSsioj3msoAK2JKwmLl9-6&quot;&gt;&#xA;          &lt;mxGeometry relative=&quot;1&quot; as=&quot;geometry&quot; /&gt;&#xA;        &lt;/mxCell&gt;&#xA;        &lt;mxCell id=&quot;eSsioj3msoAK2JKwmLl9-3&quot; parent=&quot;1&quot; style=&quot;image;html=1;image=img/lib/clip_art/networking/Router_Icon_128x128.png&quot; value=&quot;&amp;lt;div&amp;gt;LAN in bridge mode&amp;lt;/div&amp;gt;&amp;lt;div&amp;gt;192.168.20.1&amp;lt;/div&amp;gt;&amp;lt;div&amp;gt;&amp;lt;br&amp;gt;&amp;lt;/div&amp;gt;&quot; vertex=&quot;1&quot;&gt;&#xA;          &lt;mxGeometry height=&quot;80&quot; width=&quot;80&quot; x=&quot;381&quot; y=&quot;240&quot; as=&quot;geometry&quot; /&gt;&#xA;        &lt;/mxCell&gt;&#xA;        &lt;mxCell id=&quot;eSsioj3msoAK2JKwmLl9-17&quot; edge=&quot;1&quot; parent=&quot;1&quot; source=&quot;eSsioj3msoAK2JKwmLl9-6&quot; style=&quot;edgeStyle=orthogonalEdgeStyle;rounded=0;orthogonalLoop=1;jettySize=auto;html=1;exitX=0;exitY=0.75;exitDx=0;exitDy=0;entryX=0.961;entryY=0.431;entryDx=0;entryDy=0;entryPerimeter=0;&quot; target=&quot;eSsioj3msoAK2JKwmLl9-10&quot;&gt;&#xA;          &lt;mxGeometry relative=&quot;1&quot; as=&quot;geometry&quot;&gt;&#xA;            &lt;Array as=&quot;points&quot;&gt;&#xA;              &lt;mxPoint x=&quot;381&quot; y=&quot;530&quot; /&gt;&#xA;              &lt;mxPoint x=&quot;280&quot; y=&quot;530&quot; /&gt;&#xA;              &lt;mxPoint x=&quot;280&quot; y=&quot;565.3&quot; /&gt;&#xA;            &lt;/Array&gt;&#xA;            &lt;mxPoint x=&quot;281&quot; y=&quot;530&quot; as=&quot;targetPoint&quot; /&gt;&#xA;          &lt;/mxGeometry&gt;&#xA;        &lt;/mxCell&gt;&#xA;        &lt;mxCell id=&quot;eSsioj3msoAK2JKwmLl9-18&quot; edge=&quot;1&quot; parent=&quot;1&quot; source=&quot;eSsioj3msoAK2JKwmLl9-6&quot; style=&quot;edgeStyle=orthogonalEdgeStyle;rounded=0;orthogonalLoop=1;jettySize=auto;html=1;exitX=0;exitY=0.25;exitDx=0;exitDy=0;&quot;&gt;&#xA;          &lt;mxGeometry relative=&quot;1&quot; as=&quot;geometry&quot;&gt;&#xA;            &lt;Array as=&quot;points&quot;&gt;&#xA;              &lt;mxPoint x=&quot;381&quot; y=&quot;420&quot; /&gt;&#xA;            &lt;/Array&gt;&#xA;            &lt;mxPoint x=&quot;270&quot; y=&quot;420&quot; as=&quot;targetPoint&quot; /&gt;&#xA;          &lt;/mxGeometry&gt;&#xA;        &lt;/mxCell&gt;&#xA;        &lt;mxCell id=&quot;eSsioj3msoAK2JKwmLl9-27&quot; edge=&quot;1&quot; parent=&quot;1&quot; source=&quot;eSsioj3msoAK2JKwmLl9-6&quot; style=&quot;edgeStyle=orthogonalEdgeStyle;rounded=0;orthogonalLoop=1;jettySize=auto;html=1;exitX=0.25;exitY=1;exitDx=0;exitDy=0;entryX=0.25;entryY=0;entryDx=0;entryDy=0;&quot; target=&quot;eSsioj3msoAK2JKwmLl9-25&quot;&gt;&#xA;          &lt;mxGeometry relative=&quot;1&quot; as=&quot;geometry&quot;&gt;&#xA;            &lt;Array as=&quot;points&quot;&gt;&#xA;              &lt;mxPoint x=&quot;391.03&quot; y=&quot;520&quot; /&gt;&#xA;            &lt;/Array&gt;&#xA;          &lt;/mxGeometry&gt;&#xA;        &lt;/mxCell&gt;&#xA;        &lt;mxCell id=&quot;eSsioj3msoAK2JKwmLl9-29&quot; edge=&quot;1&quot; parent=&quot;1&quot; source=&quot;eSsioj3msoAK2JKwmLl9-6&quot; style=&quot;edgeStyle=orthogonalEdgeStyle;rounded=0;orthogonalLoop=1;jettySize=auto;html=1;exitX=1;exitY=0.75;exitDx=0;exitDy=0;entryX=0.5;entryY=0;entryDx=0;entryDy=0;&quot; target=&quot;eSsioj3msoAK2JKwmLl9-26&quot;&gt;&#xA;          &lt;mxGeometry relative=&quot;1&quot; as=&quot;geometry&quot; /&gt;&#xA;        &lt;/mxCell&gt;&#xA;        &lt;mxCell id=&quot;eSsioj3msoAK2JKwmLl9-6&quot; parent=&quot;1&quot; style=&quot;image;html=1;image=img/lib/clip_art/networking/Switch_128x128.png;labelPosition=center;verticalLabelPosition=bottom;align=center;verticalAlign=top;fontSize=9;labelBackgroundColor=default;horizontal=1;&quot; value=&quot;&amp;lt;div&amp;gt;8 port switch&amp;lt;/div&amp;gt;&amp;lt;div&amp;gt;192.168.30.10&amp;lt;/div&amp;gt;&amp;lt;div&amp;gt;&amp;lt;br&amp;gt;&amp;lt;/div&amp;gt;&quot; vertex=&quot;1&quot;&gt;&#xA;          &lt;mxGeometry height=&quot;80&quot; width=&quot;80&quot; x=&quot;381&quot; y=&quot;440&quot; as=&quot;geometry&quot; /&gt;&#xA;        &lt;/mxCell&gt;&#xA;        &lt;mxCell id=&quot;eSsioj3msoAK2JKwmLl9-9&quot; parent=&quot;1&quot; style=&quot;shape=mxgraph.networks2.icon;aspect=fixed;fillColor=#EDEDED;strokeColor=#000000;gradientColor=#5B6163;network2IconShadow=1;network2bgFillColor=none;labelPosition=center;verticalLabelPosition=bottom;align=center;verticalAlign=top;network2Icon=mxgraph.networks2.pc;network2IconYOffset=-0.0593;network2IconW=0.9999;network2IconH=0.7096;&quot; value=&quot;Promox node #1&amp;#xa;5 9500T + 32GB ddr4&amp;#xa;192.168.10.2&quot; vertex=&quot;1&quot;&gt;&#xA;          &lt;mxGeometry height=&quot;35.480000000000004&quot; width=&quot;49.995&quot; x=&quot;220&quot; y=&quot;404.52&quot; as=&quot;geometry&quot; /&gt;&#xA;        &lt;/mxCell&gt;&#xA;        &lt;mxCell id=&quot;eSsioj3msoAK2JKwmLl9-10&quot; parent=&quot;1&quot; style=&quot;shape=mxgraph.networks2.icon;aspect=fixed;fillColor=#EDEDED;strokeColor=#000000;gradientColor=#5B6163;network2IconShadow=1;network2bgFillColor=none;labelPosition=center;verticalLabelPosition=bottom;align=center;verticalAlign=top;network2Icon=mxgraph.networks2.pc;network2IconYOffset=-0.0593;network2IconW=0.9999;network2IconH=0.7096;&quot; value=&quot;Promox node #2&amp;#xa; 5 9500T + 16GB ddr4&amp;#xa;192.168.10.3 &quot; vertex=&quot;1&quot;&gt;&#xA;          &lt;mxGeometry height=&quot;35.480000000000004&quot; width=&quot;49.995&quot; x=&quot;210&quot; y=&quot;550&quot; as=&quot;geometry&quot; /&gt;&#xA;        &lt;/mxCell&gt;&#xA;        &lt;mxCell id=&quot;eSsioj3msoAK2JKwmLl9-22&quot; parent=&quot;1&quot; style=&quot;points=[];aspect=fixed;html=1;align=center;shadow=0;dashed=0;fillColor=#FF6A00;strokeColor=none;shape=mxgraph.alibaba_cloud.dns_domain_name_system;verticalAlign=top;labelBorderColor=none;horizontal=1;labelPosition=center;verticalLabelPosition=bottom;&quot; value=&quot;&amp;lt;div align=&amp;quot;center&amp;quot;&amp;gt;PI HOLE LAN&amp;lt;/div&amp;gt;&amp;lt;div align=&amp;quot;center&amp;quot;&amp;gt;192.168.30.2&amp;lt;/div&amp;gt;&quot; vertex=&quot;1&quot;&gt;&#xA;          &lt;mxGeometry height=&quot;54.900000000000006&quot; width=&quot;55.800000000000004&quot; x=&quot;600&quot; y=&quot;340&quot; as=&quot;geometry&quot; /&gt;&#xA;        &lt;/mxCell&gt;&#xA;        &lt;mxCell id=&quot;eSsioj3msoAK2JKwmLl9-24&quot; edge=&quot;1&quot; parent=&quot;1&quot; source=&quot;eSsioj3msoAK2JKwmLl9-6&quot; style=&quot;edgeStyle=orthogonalEdgeStyle;rounded=0;orthogonalLoop=1;jettySize=auto;html=1;exitX=1;exitY=0.25;exitDx=0;exitDy=0;entryX=-0.028;entryY=0.526;entryDx=0;entryDy=0;entryPerimeter=0;&quot; target=&quot;eSsioj3msoAK2JKwmLl9-22&quot;&gt;&#xA;          &lt;mxGeometry relative=&quot;1&quot; as=&quot;geometry&quot;&gt;&#xA;            &lt;Array as=&quot;points&quot;&gt;&#xA;              &lt;mxPoint x=&quot;461.03&quot; y=&quot;420&quot; /&gt;&#xA;              &lt;mxPoint x=&quot;549.4300000000001&quot; y=&quot;420&quot; /&gt;&#xA;            &lt;/Array&gt;&#xA;          &lt;/mxGeometry&gt;&#xA;        &lt;/mxCell&gt;&#xA;        &lt;mxCell id=&quot;eSsioj3msoAK2JKwmLl9-25&quot; parent=&quot;1&quot; style=&quot;image;html=1;image=img/lib/clip_art/computers/Laptop_128x128.png;align=right;&quot; value=&quot;&amp;lt;div&amp;gt;Main laptop with Debian&amp;lt;/div&amp;gt;&amp;lt;div&amp;gt;Gaiming laptop&amp;lt;/div&amp;gt;&amp;lt;div&amp;gt;192.168.20.199 -enx...&amp;lt;/div&amp;gt;&amp;lt;div&amp;gt;&amp;lt;br&amp;gt;&amp;lt;/div&amp;gt;&quot; vertex=&quot;1&quot;&gt;&#xA;          &lt;mxGeometry height=&quot;80&quot; width=&quot;80&quot; x=&quot;371&quot; y=&quot;610&quot; as=&quot;geometry&quot; /&gt;&#xA;        &lt;/mxCell&gt;&#xA;        &lt;mxCell id=&quot;eSsioj3msoAK2JKwmLl9-26&quot; parent=&quot;1&quot; style=&quot;image;html=1;image=img/lib/clip_art/computers/Laptop_128x128.png&quot; value=&quot;&amp;lt;div&amp;gt;Kali bare metal&amp;amp;nbsp;&amp;lt;/div&amp;gt;&amp;lt;div&amp;gt;T490&amp;lt;/div&amp;gt;&amp;lt;div&amp;gt;192.168.1.36 - wlan&amp;lt;/div&amp;gt;&amp;lt;div&amp;gt;192.168.10.10 - eth0&amp;lt;/div&amp;gt;&quot; vertex=&quot;1&quot;&gt;&#xA;          &lt;mxGeometry height=&quot;80&quot; width=&quot;80&quot; x=&quot;538.9&quot; y=&quot;550&quot; as=&quot;geometry&quot; /&gt;&#xA;        &lt;/mxCell&gt;&#xA;      &lt;/root&gt;&#xA;    &lt;/mxGraphModel&gt;&#xA;  &lt;/diagram&gt;&#xA;&lt;/mxfile&gt;&#xA;"><style type="text/css">@supports (color: light-dark(#000, #fff)) { #ge-svg-Do028WBLgQOT3RFSvhbW { --ge-adaptive-bg: light-dark(#ffffff, var(--ge-dark-color, #121212)); } }</style><defs><symbol id="mx-image-kb87pt" viewBox="0 0 80 80"><image width="80" height="80" xlink:href="https://app.diagrams.net/img/lib/clip_art/networking/Router_Icon_128x128.png"/></symbol><symbol id="mx-image-i9bzw2" viewBox="0 0 80 80"><image width="80" height="80" xlink:href="https://app.diagrams.net/img/lib/clip_art/computers/Laptop_128x128.png"/></symbol></defs><g><g data-cell-id="0"><g data-cell-id="1"><g data-cell-id="eSsioj3msoAK2JKwmLl9-4"><g transform="translate(0.5,0.5)"><path d="M 245.25 80 L 245.25 153.63" fill="none" stroke="#000000" style="stroke: light-dark(rgb(0, 0, 0), rgb(255, 255, 255));" stroke-miterlimit="10" pointer-events="stroke"/><path d="M 245.25 158.88 L 241.75 151.88 L 245.25 153.63 L 248.75 151.88 Z" fill="#000000" style="fill: light-dark(rgb(0, 0, 0), rgb(255, 255, 255)); stroke: light-dark(rgb(0, 0, 0), rgb(255, 255, 255));" stroke="#000000" stroke-miterlimit="10" pointer-events="all"/></g></g><g data-cell-id="eSsioj3msoAK2JKwmLl9-2"><g><use href="#mx-image-kb87pt" xlink:href="#mx-image-kb87pt" x="205.25" y="0" width="80" height="80"/></g><g><g><switch><foreignObject style="overflow: visible; text-align: left;" pointer-events="none" width="100%" height="100%" requiredFeatures="http://www.w3.org/TR/SVG11/feature#Extensibility"><div xmlns="http://www.w3.org/1999/xhtml" style="display: flex; align-items: unsafe flex-start; justify-content: unsafe center; width: 1px; height: 1px; padding-top: 87px; margin-left: 245px;"><div style="box-sizing: border-box; font-size: 0; text-align: center; color: #000000; background-color: #ffffff; "><div style="display: inline-block; font-size: 12px; font-family: Helvetica; color: light-dark(#000000, #ffffff); line-height: 1.2; pointer-events: all; background-color: var(--ge-adaptive-bg, #ffffff); white-space: nowrap; ">ISP</div></div></div></foreignObject><text x="245" y="99" fill="#000000" style="fill: light-dark(rgb(0, 0, 0), rgb(255, 255, 255));" font-family="Helvetica" font-size="12px" text-anchor="middle">ISP</text></switch></g></g></g><g data-cell-id="eSsioj3msoAK2JKwmLl9-7"><g transform="translate(0.5,0.5)"><path d="M 245.25 240 L 245.25 353.63" fill="none" stroke="#000000" style="stroke: light-dark(rgb(0, 0, 0), rgb(255, 255, 255));" stroke-miterlimit="10" pointer-events="stroke"/><path d="M 245.25 358.88 L 241.75 351.88 L 245.25 353.63 L 248.75 351.88 Z" fill="#000000" style="fill: light-dark(rgb(0, 0, 0), rgb(255, 255, 255)); stroke: light-dark(rgb(0, 0, 0), rgb(255, 255, 255));" stroke="#000000" stroke-miterlimit="10" pointer-events="all"/></g></g><g data-cell-id="eSsioj3msoAK2JKwmLl9-3"><g><use href="#mx-image-kb87pt" xlink:href="#mx-image-kb87pt" x="205.25" y="160" width="80" height="80"/></g><g><g><switch><foreignObject style="overflow: visible; text-align: left;" pointer-events="none" width="100%" height="100%" requiredFeatures="http://www.w3.org/TR/SVG11/feature#Extensibility"><div xmlns="http://www.w3.org/1999/xhtml" style="display: flex; align-items: unsafe flex-start; justify-content: unsafe center; width: 1px; height: 1px; padding-top: 247px; margin-left: 245px;"><div style="box-sizing: border-box; font-size: 0; text-align: center; color: #000000; background-color: #ffffff; "><div style="display: inline-block; font-size: 12px; font-family: Helvetica; color: light-dark(#000000, #ffffff); line-height: 1.2; pointer-events: all; background-color: var(--ge-adaptive-bg, #ffffff); white-space: nowrap; "><div>LAN in bridge mode</div><div>192.168.20.1</div><div><br /></div></div></div></div></foreignObject><text x="245" y="259" fill="#000000" style="fill: light-dark(rgb(0, 0, 0), rgb(255, 255, 255));" font-family="Helvetica" font-size="12px" text-anchor="middle"><tspan x="245" y="259">LAN in bridge mode</tspan><tspan x="245" y="273">192.168.20.1</tspan><tspan x="245" y="287"></tspan></text></switch></g></g></g><g data-cell-id="eSsioj3msoAK2JKwmLl9-17"><g transform="translate(0.5,0.5)"><path d="M 205.25 420 L 205.25 450 L 104.28 450 L 104.28 485.31 L 88.66 485.3" fill="none" stroke="#000000" style="stroke: light-dark(rgb(0, 0, 0), rgb(255, 255, 255));" stroke-miterlimit="10" pointer-events="stroke"/><path d="M 83.41 485.29 L 90.42 481.8 L 88.66 485.3 L 90.41 488.8 Z" fill="#000000" style="fill: light-dark(rgb(0, 0, 0), rgb(255, 255, 255)); stroke: light-dark(rgb(0, 0, 0), rgb(255, 255, 255));" stroke="#000000" stroke-miterlimit="10" pointer-events="all"/></g></g><g data-cell-id="eSsioj3msoAK2JKwmLl9-18"><g transform="translate(0.5,0.5)"><path d="M 205.25 380 L 205.25 340 L 100.62 340" fill="none" stroke="#000000" style="stroke: light-dark(rgb(0, 0, 0), rgb(255, 255, 255));" stroke-miterlimit="10" pointer-events="stroke"/><path d="M 95.37 340 L 102.37 336.5 L 100.62 340 L 102.37 343.5 Z" fill="#000000" style="fill: light-dark(rgb(0, 0, 0), rgb(255, 255, 255)); stroke: light-dark(rgb(0, 0, 0), rgb(255, 255, 255));" stroke="#000000" stroke-miterlimit="10" pointer-events="all"/></g></g><g data-cell-id="eSsioj3msoAK2JKwmLl9-27"><g transform="translate(0.5,0.5)"><path d="M 225.25 440 L 215.25 440 L 215.25 523.63" fill="none" stroke="#000000" style="stroke: light-dark(rgb(0, 0, 0), rgb(255, 255, 255));" stroke-miterlimit="10" pointer-events="stroke"/><path d="M 215.25 528.88 L 211.75 521.88 L 215.25 523.63 L 218.75 521.88 Z" fill="#000000" style="fill: light-dark(rgb(0, 0, 0), rgb(255, 255, 255)); stroke: light-dark(rgb(0, 0, 0), rgb(255, 255, 255));" stroke="#000000" stroke-miterlimit="10" pointer-events="all"/></g></g><g data-cell-id="eSsioj3msoAK2JKwmLl9-29"><g transform="translate(0.5,0.5)"><path d="M 285.25 420 L 403.14 420 L 403.15 463.63" fill="none" stroke="#000000" style="stroke: light-dark(rgb(0, 0, 0), rgb(255, 255, 255));" stroke-miterlimit="10" pointer-events="stroke"/><path d="M 403.15 468.88 L 399.65 461.88 L 403.15 463.63 L 406.65 461.88 Z" fill="#000000" style="fill: light-dark(rgb(0, 0, 0), rgb(255, 255, 255)); stroke: light-dark(rgb(0, 0, 0), rgb(255, 255, 255));" stroke="#000000" stroke-miterlimit="10" pointer-events="all"/></g></g><g data-cell-id="eSsioj3msoAK2JKwmLl9-6"><g><image width="80" height="80" xlink:href="https://app.diagrams.net/img/lib/clip_art/networking/Switch_128x128.png" x="205.25" y="360"/></g><g><g><switch><foreignObject style="overflow: visible; text-align: left;" pointer-events="none" width="100%" height="100%" requiredFeatures="http://www.w3.org/TR/SVG11/feature#Extensibility"><div xmlns="http://www.w3.org/1999/xhtml" style="display: flex; align-items: unsafe flex-start; justify-content: unsafe center; width: 1px; height: 1px; padding-top: 447px; margin-left: 245px;"><div style="box-sizing: border-box; font-size: 0; text-align: center; color: #000000; background-color: #ffffff; "><div style="display: inline-block; font-size: 9px; font-family: Helvetica; color: light-dark(#000000, #ffffff); line-height: 1.2; pointer-events: all; background-color: var(--ge-adaptive-bg, #ffffff); white-space: nowrap; "><div>8 port switch</div><div>192.168.30.10</div><div><br /></div></div></div></div></foreignObject><text x="245" y="456" fill="#000000" style="fill: light-dark(rgb(0, 0, 0), rgb(255, 255, 255));" font-family="Helvetica" font-size="9px" text-anchor="middle"><tspan x="245" y="456">8 port switch</tspan><tspan x="245" y="467">192.168.30.10</tspan><tspan x="245" y="478"></tspan></text></switch></g></g></g><g data-cell-id="eSsioj3msoAK2JKwmLl9-9"><g transform="translate(0.5,0.5)"><path d="M 73.91 342.45 L 45.14 342.45 C 44.87 342.45 44.64 342.22 44.64 341.95 L 44.64 325.32 C 44.64 325.05 44.87 324.82 45.14 324.82 L 73.91 324.82 C 74.19 324.82 74.41 325.05 74.41 325.32 L 74.41 341.94 C 74.41 342.22 74.19 342.45 73.91 342.45 Z M 74.23 358.5 L 74.23 351.64 C 74.23 351.09 73.78 350.64 73.23 350.64 L 45.77 350.64 C 45.23 350.64 44.77 351.09 44.77 351.64 L 44.77 358.5 C 44.77 359.05 45.23 359.5 45.77 359.5 L 73.23 359.5 C 73.78 359.5 74.23 359.05 74.23 358.5 Z M 92.75 325.54 L 79.63 325.54 C 79.35 325.54 79.13 325.76 79.13 326.04 L 79.13 357.06 C 79.13 357.34 79.35 357.56 79.63 357.56 L 92.75 357.56 C 93.02 357.56 93.25 357.34 93.25 357.06 L 93.25 326.04 C 93.25 325.76 93.02 325.54 92.75 325.54 Z" fill="#ededed" style="fill: light-dark(rgb(237, 237, 237), rgb(33, 33, 33));" stroke="none" pointer-events="all"/><path d="M 86.19 330.74 C 85.08 330.74 84.19 329.84 84.19 328.74 C 84.19 327.63 85.08 326.74 86.19 326.74 C 87.29 326.74 88.19 327.63 88.19 328.74 C 88.19 329.84 87.28 330.74 86.19 330.74 Z M 74.47 324.84 L 74.45 324.83 L 74.41 324.78 L 74.39 324.77 C 74.22 324.62 73.98 324.52 73.72 324.52 L 45.25 324.52 C 44.7 324.52 44.25 324.97 44.25 325.52 L 44.25 341.75 C 44.25 342.02 44.36 342.27 44.53 342.45 L 44.55 342.47 C 44.73 342.64 44.98 342.75 45.25 342.75 L 56.49 342.75 L 56.49 345.73 L 52.88 345.73 C 52.6 345.73 52.38 345.95 52.38 346.23 L 52.38 346.57 C 52.38 346.84 52.6 347.07 52.88 347.07 L 66.17 347.07 C 66.44 347.07 66.67 346.84 66.67 346.57 L 66.67 346.23 C 66.67 345.95 66.44 345.73 66.17 345.73 L 62.57 345.73 L 62.57 342.75 L 73.72 342.75 C 74.28 342.75 74.72 342.3 74.72 341.75 L 74.72 325.52 C 74.72 325.26 74.63 325.02 74.47 324.84 Z M 73.72 341.75 L 45.25 341.75 L 45.25 325.52 L 73.72 325.52 L 73.72 341.75 C 73.72 341.75 73.72 341.75 73.72 341.75 Z M 91.33 352.7 L 81.04 352.69 C 81.04 352.69 81.04 352.69 81.04 352.69 C 80.77 352.69 80.54 352.92 80.54 353.19 C 80.54 353.47 80.77 353.69 81.04 353.69 L 91.33 353.7 C 91.33 353.7 91.33 353.7 91.33 353.7 C 91.6 353.7 91.83 353.47 91.83 353.2 C 91.83 352.92 91.6 352.7 91.33 352.7 Z M 91.33 350.04 L 81.04 350.04 C 81.04 350.04 81.04 350.04 81.04 350.04 C 80.77 350.04 80.54 350.26 80.54 350.54 C 80.54 350.81 80.77 351.04 81.04 351.04 L 91.33 351.04 C 91.33 351.04 91.33 351.04 91.33 351.04 C 91.6 351.04 91.83 350.82 91.83 350.54 C 91.83 350.26 91.6 350.04 91.33 350.04 Z M 91.33 347.38 L 81.04 347.38 L 81.04 347.38 C 80.77 347.38 80.54 347.6 80.54 347.88 C 80.54 348.15 80.77 348.38 81.04 348.38 L 91.33 348.38 C 91.33 348.38 91.33 348.38 91.33 348.38 C 91.6 348.38 91.83 348.16 91.83 347.88 C 91.83 347.61 91.6 347.38 91.33 347.38 Z M 91.33 344.72 L 81.04 344.72 C 81.04 344.72 81.04 344.72 81.04 344.72 C 80.77 344.72 80.54 344.94 80.54 345.22 C 80.54 345.49 80.77 345.72 81.04 345.72 L 91.33 345.72 C 91.33 345.72 91.33 345.72 91.33 345.72 C 91.6 345.72 91.83 345.5 91.83 345.22 C 91.83 344.95 91.6 344.72 91.33 344.72 Z M 91.33 342.06 L 81.04 342.06 L 81.04 342.06 C 80.77 342.06 80.54 342.28 80.54 342.56 C 80.54 342.83 80.77 343.06 81.04 343.06 L 91.33 343.06 C 91.33 343.06 91.33 343.06 91.33 343.06 C 91.6 343.06 91.83 342.84 91.83 342.56 C 91.83 342.29 91.6 342.06 91.33 342.06 Z M 81.04 343.06 L 91.33 343.06 C 91.33 343.06 91.33 343.06 91.33 343.06 C 91.6 343.06 91.83 342.84 91.83 342.56 C 91.83 342.29 91.6 342.06 91.33 342.06 L 81.04 342.06 L 81.04 342.06 C 80.77 342.06 80.54 342.28 80.54 342.56 C 80.54 342.83 80.76 343.06 81.04 343.06 Z M 91.33 344.72 L 81.04 344.72 C 81.04 344.72 81.04 344.72 81.04 344.72 C 80.77 344.72 80.54 344.94 80.54 345.22 C 80.54 345.49 80.77 345.72 81.04 345.72 L 91.33 345.72 C 91.33 345.72 91.33 345.72 91.33 345.72 C 91.6 345.72 91.83 345.5 91.83 345.22 C 91.83 344.95 91.6 344.72 91.33 344.72 Z M 91.33 347.38 L 81.04 347.38 L 81.04 347.38 C 80.77 347.38 80.54 347.6 80.54 347.88 C 80.54 348.15 80.77 348.38 81.04 348.38 L 91.33 348.38 C 91.33 348.38 91.33 348.38 91.33 348.38 C 91.6 348.38 91.83 348.16 91.83 347.88 C 91.83 347.61 91.6 347.38 91.33 347.38 Z M 91.33 350.04 L 81.04 350.04 C 81.04 350.04 81.04 350.04 81.04 350.04 C 80.77 350.04 80.54 350.26 80.54 350.54 C 80.54 350.81 80.77 351.04 81.04 351.04 L 91.33 351.04 C 91.33 351.04 91.33 351.04 91.33 351.04 C 91.6 351.04 91.83 350.82 91.83 350.54 C 91.83 350.26 91.6 350.04 91.33 350.04 Z M 91.33 352.7 L 81.04 352.69 C 81.04 352.69 81.04 352.69 81.04 352.69 C 80.77 352.69 80.54 352.92 80.54 353.19 C 80.54 353.47 80.77 353.69 81.04 353.69 L 91.33 353.7 C 91.33 353.7 91.33 353.7 91.33 353.7 C 91.6 353.7 91.83 353.47 91.83 353.2 C 91.83 352.92 91.6 352.7 91.33 352.7 Z M 93.9 325.08 C 93.84 325.01 93.78 324.95 93.7 324.89 C 93.44 324.67 93.11 324.54 92.75 324.54 L 79.63 324.54 C 78.8 324.54 78.13 325.21 78.13 326.04 L 78.13 357.06 C 78.13 357.81 78.67 358.43 79.39 358.54 L 79.39 359.49 C 79.39 359.77 79.62 359.99 79.89 359.99 L 92.48 359.99 C 92.75 359.99 92.98 359.77 92.98 359.49 L 92.98 358.54 C 93.69 358.43 94.25 357.81 94.25 357.06 L 94.25 326.04 C 94.25 325.67 94.11 325.34 93.9 325.08 Z M 93.25 357.06 C 93.25 357.34 93.02 357.56 92.75 357.56 L 79.63 357.56 C 79.35 357.56 79.13 357.34 79.13 357.06 L 79.13 326.04 C 79.13 325.76 79.35 325.54 79.63 325.54 L 92.75 325.54 C 93.02 325.54 93.25 325.76 93.25 326.04 L 93.25 357.06 Z M 91.33 342.06 L 81.04 342.06 L 81.04 342.06 C 80.77 342.06 80.54 342.28 80.54 342.56 C 80.54 342.83 80.77 343.06 81.04 343.06 L 91.33 343.06 C 91.33 343.06 91.33 343.06 91.33 343.06 C 91.6 343.06 91.83 342.84 91.83 342.56 C 91.83 342.29 91.6 342.06 91.33 342.06 Z M 91.33 344.72 L 81.04 344.72 C 81.04 344.72 81.04 344.72 81.04 344.72 C 80.77 344.72 80.54 344.94 80.54 345.22 C 80.54 345.49 80.77 345.72 81.04 345.72 L 91.33 345.72 C 91.33 345.72 91.33 345.72 91.33 345.72 C 91.6 345.72 91.83 345.5 91.83 345.22 C 91.83 344.95 91.6 344.72 91.33 344.72 Z M 91.33 347.38 L 81.04 347.38 L 81.04 347.38 C 80.77 347.38 80.54 347.6 80.54 347.88 C 80.54 348.15 80.77 348.38 81.04 348.38 L 91.33 348.38 C 91.33 348.38 91.33 348.38 91.33 348.38 C 91.6 348.38 91.83 348.16 91.83 347.88 C 91.83 347.61 91.6 347.38 91.33 347.38 Z M 91.33 350.04 L 81.04 350.04 C 81.04 350.04 81.04 350.04 81.04 350.04 C 80.77 350.04 80.54 350.26 80.54 350.54 C 80.54 350.81 80.77 351.04 81.04 351.04 L 91.33 351.04 C 91.33 351.04 91.33 351.04 91.33 351.04 C 91.6 351.04 91.83 350.82 91.83 350.54 C 91.83 350.26 91.6 350.04 91.33 350.04 Z M 91.33 352.7 L 81.04 352.69 C 81.04 352.69 81.04 352.69 81.04 352.69 C 80.77 352.69 80.54 352.92 80.54 353.19 C 80.54 353.47 80.77 353.69 81.04 353.69 L 91.33 353.7 C 91.33 353.7 91.33 353.7 91.33 353.7 C 91.6 353.7 91.83 353.47 91.83 353.2 C 91.83 352.92 91.6 352.7 91.33 352.7 Z M 91.33 352.7 L 81.04 352.69 C 81.04 352.69 81.04 352.69 81.04 352.69 C 80.77 352.69 80.54 352.92 80.54 353.19 C 80.54 353.47 80.77 353.69 81.04 353.69 L 91.33 353.7 C 91.33 353.7 91.33 353.7 91.33 353.7 C 91.6 353.7 91.83 353.47 91.83 353.2 C 91.83 352.92 91.6 352.7 91.33 352.7 Z M 91.33 350.04 L 81.04 350.04 C 81.04 350.04 81.04 350.04 81.04 350.04 C 80.77 350.04 80.54 350.26 80.54 350.54 C 80.54 350.81 80.77 351.04 81.04 351.04 L 91.33 351.04 C 91.33 351.04 91.33 351.04 91.33 351.04 C 91.6 351.04 91.83 350.82 91.83 350.54 C 91.83 350.26 91.6 350.04 91.33 350.04 Z M 91.33 347.38 L 81.04 347.38 L 81.04 347.38 C 80.77 347.38 80.54 347.6 80.54 347.88 C 80.54 348.15 80.77 348.38 81.04 348.38 L 91.33 348.38 C 91.33 348.38 91.33 348.38 91.33 348.38 C 91.6 348.38 91.83 348.16 91.83 347.88 C 91.83 347.61 91.6 347.38 91.33 347.38 Z M 91.33 344.72 L 81.04 344.72 C 81.04 344.72 81.04 344.72 81.04 344.72 C 80.77 344.72 80.54 344.94 80.54 345.22 C 80.54 345.49 80.77 345.72 81.04 345.72 L 91.33 345.72 C 91.33 345.72 91.33 345.72 91.33 345.72 C 91.6 345.72 91.83 345.5 91.83 345.22 C 91.83 344.95 91.6 344.72 91.33 344.72 Z M 91.33 342.06 L 81.04 342.06 L 81.04 342.06 C 80.77 342.06 80.54 342.28 80.54 342.56 C 80.54 342.83 80.77 343.06 81.04 343.06 L 91.33 343.06 C 91.33 343.06 91.33 343.06 91.33 343.06 C 91.6 343.06 91.83 342.84 91.83 342.56 C 91.83 342.29 91.6 342.06 91.33 342.06 Z M 91.33 342.06 L 81.04 342.06 L 81.04 342.06 C 80.77 342.06 80.54 342.28 80.54 342.56 C 80.54 342.83 80.77 343.06 81.04 343.06 L 91.33 343.06 C 91.33 343.06 91.33 343.06 91.33 343.06 C 91.6 343.06 91.83 342.84 91.83 342.56 C 91.83 342.29 91.6 342.06 91.33 342.06 Z M 91.33 344.72 L 81.04 344.72 C 81.04 344.72 81.04 344.72 81.04 344.72 C 80.77 344.72 80.54 344.94 80.54 345.22 C 80.54 345.49 80.77 345.72 81.04 345.72 L 91.33 345.72 C 91.33 345.72 91.33 345.72 91.33 345.72 C 91.6 345.72 91.83 345.5 91.83 345.22 C 91.83 344.95 91.6 344.72 91.33 344.72 Z M 91.33 347.38 L 81.04 347.38 L 81.04 347.38 C 80.77 347.38 80.54 347.6 80.54 347.88 C 80.54 348.15 80.77 348.38 81.04 348.38 L 91.33 348.38 C 91.33 348.38 91.33 348.38 91.33 348.38 C 91.6 348.38 91.83 348.16 91.83 347.88 C 91.83 347.61 91.6 347.38 91.33 347.38 Z M 91.33 350.04 L 81.04 350.04 C 81.04 350.04 81.04 350.04 81.04 350.04 C 80.77 350.04 80.54 350.26 80.54 350.54 C 80.54 350.81 80.77 351.04 81.04 351.04 L 91.33 351.04 C 91.33 351.04 91.33 351.04 91.33 351.04 C 91.6 351.04 91.83 350.82 91.83 350.54 C 91.83 350.26 91.6 350.04 91.33 350.04 Z M 91.33 352.7 L 81.04 352.69 C 81.04 352.69 81.04 352.69 81.04 352.69 C 80.77 352.69 80.54 352.92 80.54 353.19 C 80.54 353.47 80.77 353.69 81.04 353.69 L 91.33 353.7 C 91.33 353.7 91.33 353.7 91.33 353.7 C 91.6 353.7 91.83 353.47 91.83 353.2 C 91.83 352.92 91.6 352.7 91.33 352.7 Z M 65.39 352.19 L 47.01 352.19 C 46.73 352.19 46.51 352.42 46.51 352.69 C 46.51 352.97 46.73 353.19 47.01 353.19 L 65.39 353.19 C 65.66 353.19 65.89 352.97 65.89 352.69 C 65.89 352.42 65.66 352.19 65.39 352.19 Z M 64.92 354.15 L 47.55 354.15 C 47 354.15 46.55 354.6 46.55 355.15 L 46.55 357.09 C 46.55 357.64 47 358.09 47.55 358.09 L 64.92 358.09 C 65.47 358.09 65.92 357.64 65.92 357.09 L 65.92 355.15 C 65.92 354.59 65.47 354.15 64.92 354.15 Z M 71.79 352.09 L 68.79 352.09 C 68.24 352.09 67.79 352.54 67.79 353.09 L 67.79 357.09 C 67.79 357.64 68.24 358.09 68.79 358.09 L 71.79 358.09 C 72.34 358.09 72.79 357.64 72.79 357.09 L 72.79 353.09 C 72.79 352.54 72.34 352.09 71.79 352.09 Z M 71.79 352.09 L 68.79 352.09 C 68.24 352.09 67.79 352.54 67.79 353.09 L 67.79 357.09 C 67.79 357.64 68.24 358.09 68.79 358.09 L 71.79 358.09 C 72.34 358.09 72.79 357.64 72.79 357.09 L 72.79 353.09 C 72.79 352.54 72.34 352.09 71.79 352.09 Z M 64.92 354.15 L 47.55 354.15 C 47 354.15 46.55 354.6 46.55 355.15 L 46.55 357.09 C 46.55 357.64 47 358.09 47.55 358.09 L 64.92 358.09 C 65.47 358.09 65.92 357.64 65.92 357.09 L 65.92 355.15 C 65.92 354.59 65.47 354.15 64.92 354.15 Z M 47.01 353.19 L 65.39 353.19 C 65.66 353.19 65.89 352.97 65.89 352.69 C 65.89 352.42 65.66 352.19 65.39 352.19 L 47.01 352.19 C 46.73 352.19 46.51 352.42 46.51 352.69 C 46.51 352.97 46.73 353.19 47.01 353.19 Z M 73.23 350.14 L 45.77 350.14 C 44.95 350.14 44.27 350.81 44.27 351.64 L 44.27 358.5 C 44.27 358.9 44.43 359.26 44.69 359.53 L 44.74 359.59 C 45.02 359.84 45.38 360 45.77 360 L 73.23 360 C 74.06 360 74.73 359.32 74.73 358.5 L 74.73 351.64 C 74.73 350.81 74.06 350.14 73.23 350.14 Z M 73.73 358.5 C 73.73 358.78 73.5 359 73.23 359 L 45.77 359 C 45.5 359 45.27 358.78 45.27 358.5 L 45.27 351.64 C 45.27 351.36 45.5 351.14 45.77 351.14 L 73.23 351.14 C 73.5 351.14 73.73 351.36 73.73 351.64 L 73.73 358.5 Z M 71.79 352.09 L 68.79 352.09 C 68.24 352.09 67.79 352.54 67.79 353.09 L 67.79 357.09 C 67.79 357.64 68.24 358.09 68.79 358.09 L 71.79 358.09 C 72.34 358.09 72.79 357.64 72.79 357.09 L 72.79 353.09 C 72.79 352.54 72.34 352.09 71.79 352.09 Z M 64.92 354.15 L 47.55 354.15 C 47 354.15 46.55 354.6 46.55 355.15 L 46.55 357.09 C 46.55 357.64 47 358.09 47.55 358.09 L 64.92 358.09 C 65.47 358.09 65.92 357.64 65.92 357.09 L 65.92 355.15 C 65.92 354.59 65.47 354.15 64.92 354.15 Z M 47.01 353.19 L 65.39 353.19 C 65.66 353.19 65.89 352.97 65.89 352.69 C 65.89 352.42 65.66 352.19 65.39 352.19 L 47.01 352.19 C 46.73 352.19 46.51 352.42 46.51 352.69 C 46.51 352.97 46.73 353.19 47.01 353.19 Z M 65.39 352.19 L 47.01 352.19 C 46.73 352.19 46.51 352.42 46.51 352.69 C 46.51 352.97 46.73 353.19 47.01 353.19 L 65.39 353.19 C 65.66 353.19 65.89 352.97 65.89 352.69 C 65.89 352.42 65.66 352.19 65.39 352.19 Z M 64.92 354.15 L 47.55 354.15 C 47 354.15 46.55 354.6 46.55 355.15 L 46.55 357.09 C 46.55 357.64 47 358.09 47.55 358.09 L 64.92 358.09 C 65.47 358.09 65.92 357.64 65.92 357.09 L 65.92 355.15 C 65.92 354.59 65.47 354.15 64.92 354.15 Z M 71.79 352.09 L 68.79 352.09 C 68.24 352.09 67.79 352.54 67.79 353.09 L 67.79 357.09 C 67.79 357.64 68.24 358.09 68.79 358.09 L 71.79 358.09 C 72.34 358.09 72.79 357.64 72.79 357.09 L 72.79 353.09 C 72.79 352.54 72.34 352.09 71.79 352.09 Z M 64.92 354.15 L 47.55 354.15 C 47 354.15 46.55 354.6 46.55 355.15 L 46.55 357.09 C 46.55 357.64 47 358.09 47.55 358.09 L 64.92 358.09 C 65.47 358.09 65.92 357.64 65.92 357.09 L 65.92 355.15 C 65.92 354.59 65.47 354.15 64.92 354.15 Z M 71.79 352.09 L 68.79 352.09 C 68.24 352.09 67.79 352.54 67.79 353.09 L 67.79 357.09 C 67.79 357.64 68.24 358.09 68.79 358.09 L 71.79 358.09 C 72.34 358.09 72.79 357.64 72.79 357.09 L 72.79 353.09 C 72.79 352.54 72.34 352.09 71.79 352.09 Z M 65.39 352.19 L 47.01 352.19 C 46.73 352.19 46.51 352.42 46.51 352.69 C 46.51 352.97 46.73 353.19 47.01 353.19 L 65.39 353.19 C 65.66 353.19 65.89 352.97 65.89 352.69 C 65.89 352.42 65.66 352.19 65.39 352.19 Z" fill="#000000" style="fill: light-dark(rgb(0, 0, 0), rgb(237, 237, 237));" stroke="none" pointer-events="all"/></g><g><g fill="#000000" style="fill: light-dark(rgb(0, 0, 0), rgb(255, 255, 255));" font-family="Helvetica" text-anchor="middle" font-size="12px"><text x="69.25" y="378">Promox node #1</text><text x="69.25" y="392">5 9500T + 32GB ddr4</text><text x="69.25" y="406">192.168.10.2</text></g></g></g><g data-cell-id="eSsioj3msoAK2JKwmLl9-10"><g transform="translate(0.5,0.5)"><path d="M 63.91 487.93 L 35.14 487.93 C 34.87 487.93 34.64 487.7 34.64 487.43 L 34.64 470.81 C 34.64 470.53 34.87 470.31 35.14 470.31 L 63.91 470.31 C 64.19 470.31 64.41 470.53 64.41 470.81 L 64.41 487.43 C 64.41 487.7 64.19 487.93 63.91 487.93 Z M 64.23 503.99 L 64.23 497.12 C 64.23 496.57 63.78 496.12 63.23 496.12 L 35.77 496.12 C 35.23 496.12 34.77 496.57 34.77 497.12 L 34.77 503.98 C 34.77 504.53 35.23 504.98 35.77 504.98 L 63.23 504.98 C 63.78 504.99 64.23 504.54 64.23 503.99 Z M 82.75 471.02 L 69.63 471.02 C 69.35 471.02 69.13 471.25 69.13 471.52 L 69.13 502.55 C 69.13 502.82 69.35 503.05 69.63 503.05 L 82.75 503.05 C 83.02 503.05 83.25 502.82 83.25 502.55 L 83.25 471.52 C 83.25 471.25 83.02 471.02 82.75 471.02 Z" fill="#ededed" style="fill: light-dark(rgb(237, 237, 237), rgb(33, 33, 33));" stroke="none" pointer-events="all"/><path d="M 76.19 476.22 C 75.08 476.22 74.19 475.32 74.19 474.22 C 74.19 473.12 75.08 472.22 76.19 472.22 C 77.29 472.22 78.19 473.12 78.19 474.22 C 78.19 475.32 77.28 476.22 76.19 476.22 Z M 64.47 470.32 L 64.45 470.31 L 64.41 470.26 L 64.39 470.25 C 64.22 470.1 63.98 470 63.73 470 L 35.25 470 C 34.7 470 34.25 470.45 34.25 471 L 34.25 487.24 C 34.25 487.5 34.36 487.75 34.53 487.93 L 34.55 487.95 C 34.73 488.13 34.98 488.24 35.25 488.24 L 46.49 488.24 L 46.49 491.21 L 42.88 491.21 C 42.6 491.21 42.38 491.44 42.38 491.71 L 42.38 492.05 C 42.38 492.32 42.6 492.55 42.88 492.55 L 56.17 492.55 C 56.45 492.55 56.67 492.32 56.67 492.05 L 56.67 491.71 C 56.67 491.44 56.45 491.21 56.17 491.21 L 52.57 491.21 L 52.57 488.24 L 63.73 488.24 C 64.28 488.24 64.72 487.79 64.72 487.24 L 64.72 471 C 64.72 470.74 64.63 470.5 64.47 470.32 Z M 63.73 487.24 L 35.25 487.24 L 35.25 471 L 63.73 471 L 63.73 487.24 C 63.73 487.24 63.73 487.24 63.73 487.24 Z M 81.33 498.18 L 71.04 498.18 C 71.04 498.18 71.04 498.18 71.04 498.18 C 70.77 498.18 70.54 498.4 70.54 498.68 C 70.54 498.95 70.77 499.18 71.04 499.18 L 81.33 499.18 C 81.33 499.18 81.33 499.18 81.33 499.18 C 81.6 499.18 81.83 498.95 81.83 498.68 C 81.83 498.41 81.6 498.18 81.33 498.18 Z M 81.33 495.52 L 71.04 495.52 C 71.04 495.52 71.04 495.52 71.04 495.52 C 70.77 495.52 70.54 495.75 70.54 496.02 C 70.54 496.3 70.77 496.52 71.04 496.52 L 81.33 496.52 C 81.33 496.52 81.33 496.52 81.33 496.52 C 81.6 496.52 81.83 496.3 81.83 496.02 C 81.83 495.75 81.6 495.52 81.33 495.52 Z M 81.33 492.87 L 71.04 492.86 L 71.04 492.86 C 70.77 492.86 70.54 493.08 70.54 493.36 C 70.54 493.63 70.77 493.86 71.04 493.86 L 81.33 493.87 C 81.33 493.87 81.33 493.87 81.33 493.87 C 81.6 493.87 81.83 493.64 81.83 493.37 C 81.83 493.09 81.6 492.87 81.33 492.87 Z M 81.33 490.2 L 71.04 490.2 C 71.04 490.2 71.04 490.2 71.04 490.2 C 70.77 490.2 70.54 490.43 70.54 490.7 C 70.54 490.98 70.77 491.2 71.04 491.2 L 81.33 491.2 C 81.33 491.2 81.33 491.2 81.33 491.2 C 81.6 491.2 81.83 490.98 81.83 490.7 C 81.83 490.43 81.6 490.2 81.33 490.2 Z M 81.33 487.55 L 71.04 487.54 L 71.04 487.54 C 70.77 487.54 70.54 487.76 70.54 488.04 C 70.54 488.31 70.77 488.54 71.04 488.54 L 81.33 488.55 C 81.33 488.55 81.33 488.55 81.33 488.55 C 81.6 488.55 81.83 488.32 81.83 488.05 C 81.83 487.77 81.6 487.55 81.33 487.55 Z M 71.04 488.54 L 81.33 488.55 C 81.33 488.55 81.33 488.55 81.33 488.55 C 81.6 488.55 81.83 488.32 81.83 488.05 C 81.83 487.77 81.6 487.55 81.33 487.55 L 71.04 487.54 L 71.04 487.54 C 70.77 487.54 70.54 487.76 70.54 488.04 C 70.54 488.31 70.76 488.54 71.04 488.54 Z M 81.33 490.2 L 71.04 490.2 C 71.04 490.2 71.04 490.2 71.04 490.2 C 70.77 490.2 70.54 490.43 70.54 490.7 C 70.54 490.98 70.77 491.2 71.04 491.2 L 81.33 491.2 C 81.33 491.2 81.33 491.2 81.33 491.2 C 81.6 491.2 81.83 490.98 81.83 490.7 C 81.83 490.43 81.6 490.2 81.33 490.2 Z M 81.33 492.87 L 71.04 492.86 L 71.04 492.86 C 70.77 492.86 70.54 493.08 70.54 493.36 C 70.54 493.63 70.77 493.86 71.04 493.86 L 81.33 493.87 C 81.33 493.87 81.33 493.87 81.33 493.87 C 81.6 493.87 81.83 493.64 81.83 493.37 C 81.83 493.09 81.6 492.87 81.33 492.87 Z M 81.33 495.52 L 71.04 495.52 C 71.04 495.52 71.04 495.52 71.04 495.52 C 70.77 495.52 70.54 495.75 70.54 496.02 C 70.54 496.3 70.77 496.52 71.04 496.52 L 81.33 496.52 C 81.33 496.52 81.33 496.52 81.33 496.52 C 81.6 496.52 81.83 496.3 81.83 496.02 C 81.83 495.75 81.6 495.52 81.33 495.52 Z M 81.33 498.18 L 71.04 498.18 C 71.04 498.18 71.04 498.18 71.04 498.18 C 70.77 498.18 70.54 498.4 70.54 498.68 C 70.54 498.95 70.77 499.18 71.04 499.18 L 81.33 499.18 C 81.33 499.18 81.33 499.18 81.33 499.18 C 81.6 499.18 81.83 498.95 81.83 498.68 C 81.83 498.41 81.6 498.18 81.33 498.18 Z M 83.9 470.56 C 83.84 470.49 83.78 470.43 83.7 470.37 C 83.44 470.15 83.11 470.02 82.75 470.02 L 69.63 470.02 C 68.8 470.02 68.13 470.69 68.13 471.52 L 68.13 502.55 C 68.13 503.29 68.67 503.92 69.39 504.02 L 69.39 504.98 C 69.39 505.25 69.62 505.48 69.89 505.48 L 82.48 505.48 C 82.75 505.48 82.98 505.25 82.98 504.98 L 82.98 504.02 C 83.69 503.91 84.25 503.29 84.25 502.55 L 84.25 471.52 C 84.25 471.15 84.11 470.82 83.9 470.56 Z M 83.25 502.55 C 83.25 502.82 83.02 503.05 82.75 503.05 L 69.63 503.05 C 69.35 503.05 69.13 502.82 69.13 502.55 L 69.13 471.52 C 69.13 471.25 69.35 471.02 69.63 471.02 L 82.75 471.02 C 83.02 471.02 83.25 471.25 83.25 471.52 L 83.25 502.55 Z M 81.33 487.55 L 71.04 487.54 L 71.04 487.54 C 70.77 487.54 70.54 487.76 70.54 488.04 C 70.54 488.31 70.77 488.54 71.04 488.54 L 81.33 488.55 C 81.33 488.55 81.33 488.55 81.33 488.55 C 81.6 488.55 81.83 488.32 81.83 488.05 C 81.83 487.77 81.6 487.55 81.33 487.55 Z M 81.33 490.2 L 71.04 490.2 C 71.04 490.2 71.04 490.2 71.04 490.2 C 70.77 490.2 70.54 490.43 70.54 490.7 C 70.54 490.98 70.77 491.2 71.04 491.2 L 81.33 491.2 C 81.33 491.2 81.33 491.2 81.33 491.2 C 81.6 491.2 81.83 490.98 81.83 490.7 C 81.83 490.43 81.6 490.2 81.33 490.2 Z M 81.33 492.87 L 71.04 492.86 L 71.04 492.86 C 70.77 492.86 70.54 493.08 70.54 493.36 C 70.54 493.63 70.77 493.86 71.04 493.86 L 81.33 493.87 C 81.33 493.87 81.33 493.87 81.33 493.87 C 81.6 493.87 81.83 493.64 81.83 493.37 C 81.83 493.09 81.6 492.87 81.33 492.87 Z M 81.33 495.52 L 71.04 495.52 C 71.04 495.52 71.04 495.52 71.04 495.52 C 70.77 495.52 70.54 495.75 70.54 496.02 C 70.54 496.3 70.77 496.52 71.04 496.52 L 81.33 496.52 C 81.33 496.52 81.33 496.52 81.33 496.52 C 81.6 496.52 81.83 496.3 81.83 496.02 C 81.83 495.75 81.6 495.52 81.33 495.52 Z M 81.33 498.18 L 71.04 498.18 C 71.04 498.18 71.04 498.18 71.04 498.18 C 70.77 498.18 70.54 498.4 70.54 498.68 C 70.54 498.95 70.77 499.18 71.04 499.18 L 81.33 499.18 C 81.33 499.18 81.33 499.18 81.33 499.18 C 81.6 499.18 81.83 498.95 81.83 498.68 C 81.83 498.41 81.6 498.18 81.33 498.18 Z M 81.33 498.18 L 71.04 498.18 C 71.04 498.18 71.04 498.18 71.04 498.18 C 70.77 498.18 70.54 498.4 70.54 498.68 C 70.54 498.95 70.77 499.18 71.04 499.18 L 81.33 499.18 C 81.33 499.18 81.33 499.18 81.33 499.18 C 81.6 499.18 81.83 498.95 81.83 498.68 C 81.83 498.41 81.6 498.18 81.33 498.18 Z M 81.33 495.52 L 71.04 495.52 C 71.04 495.52 71.04 495.52 71.04 495.52 C 70.77 495.52 70.54 495.75 70.54 496.02 C 70.54 496.3 70.77 496.52 71.04 496.52 L 81.33 496.52 C 81.33 496.52 81.33 496.52 81.33 496.52 C 81.6 496.52 81.83 496.3 81.83 496.02 C 81.83 495.75 81.6 495.52 81.33 495.52 Z M 81.33 492.87 L 71.04 492.86 L 71.04 492.86 C 70.77 492.86 70.54 493.08 70.54 493.36 C 70.54 493.63 70.77 493.86 71.04 493.86 L 81.33 493.87 C 81.33 493.87 81.33 493.87 81.33 493.87 C 81.6 493.87 81.83 493.64 81.83 493.37 C 81.83 493.09 81.6 492.87 81.33 492.87 Z M 81.33 490.2 L 71.04 490.2 C 71.04 490.2 71.04 490.2 71.04 490.2 C 70.77 490.2 70.54 490.43 70.54 490.7 C 70.54 490.98 70.77 491.2 71.04 491.2 L 81.33 491.2 C 81.33 491.2 81.33 491.2 81.33 491.2 C 81.6 491.2 81.83 490.98 81.83 490.7 C 81.83 490.43 81.6 490.2 81.33 490.2 Z M 81.33 487.55 L 71.04 487.54 L 71.04 487.54 C 70.77 487.54 70.54 487.76 70.54 488.04 C 70.54 488.31 70.77 488.54 71.04 488.54 L 81.33 488.55 C 81.33 488.55 81.33 488.55 81.33 488.55 C 81.6 488.55 81.83 488.32 81.83 488.05 C 81.83 487.77 81.6 487.55 81.33 487.55 Z M 81.33 487.55 L 71.04 487.54 L 71.04 487.54 C 70.77 487.54 70.54 487.76 70.54 488.04 C 70.54 488.31 70.77 488.54 71.04 488.54 L 81.33 488.55 C 81.33 488.55 81.33 488.55 81.33 488.55 C 81.6 488.55 81.83 488.32 81.83 488.05 C 81.83 487.77 81.6 487.55 81.33 487.55 Z M 81.33 490.2 L 71.04 490.2 C 71.04 490.2 71.04 490.2 71.04 490.2 C 70.77 490.2 70.54 490.43 70.54 490.7 C 70.54 490.98 70.77 491.2 71.04 491.2 L 81.33 491.2 C 81.33 491.2 81.33 491.2 81.33 491.2 C 81.6 491.2 81.83 490.98 81.83 490.7 C 81.83 490.43 81.6 490.2 81.33 490.2 Z M 81.33 492.87 L 71.04 492.86 L 71.04 492.86 C 70.77 492.86 70.54 493.08 70.54 493.36 C 70.54 493.63 70.77 493.86 71.04 493.86 L 81.33 493.87 C 81.33 493.87 81.33 493.87 81.33 493.87 C 81.6 493.87 81.83 493.64 81.83 493.37 C 81.83 493.09 81.6 492.87 81.33 492.87 Z M 81.33 495.52 L 71.04 495.52 C 71.04 495.52 71.04 495.52 71.04 495.52 C 70.77 495.52 70.54 495.75 70.54 496.02 C 70.54 496.3 70.77 496.52 71.04 496.52 L 81.33 496.52 C 81.33 496.52 81.33 496.52 81.33 496.52 C 81.6 496.52 81.83 496.3 81.83 496.02 C 81.83 495.75 81.6 495.52 81.33 495.52 Z M 81.33 498.18 L 71.04 498.18 C 71.04 498.18 71.04 498.18 71.04 498.18 C 70.77 498.18 70.54 498.4 70.54 498.68 C 70.54 498.95 70.77 499.18 71.04 499.18 L 81.33 499.18 C 81.33 499.18 81.33 499.18 81.33 499.18 C 81.6 499.18 81.83 498.95 81.83 498.68 C 81.83 498.41 81.6 498.18 81.33 498.18 Z M 55.39 497.68 L 37.01 497.68 C 36.73 497.68 36.51 497.9 36.51 498.18 C 36.51 498.45 36.73 498.68 37.01 498.68 L 55.39 498.68 C 55.66 498.68 55.89 498.45 55.89 498.18 C 55.89 497.9 55.66 497.68 55.39 497.68 Z M 54.92 499.63 L 37.55 499.63 C 37 499.63 36.55 500.08 36.55 500.63 L 36.55 502.57 C 36.55 503.12 37 503.57 37.55 503.57 L 54.92 503.57 C 55.48 503.57 55.92 503.12 55.92 502.57 L 55.92 500.63 C 55.92 500.07 55.48 499.63 54.92 499.63 Z M 61.79 497.57 L 58.79 497.57 C 58.24 497.57 57.79 498.02 57.79 498.57 L 57.79 502.57 C 57.79 503.13 58.24 503.57 58.79 503.57 L 61.79 503.57 C 62.34 503.57 62.79 503.13 62.79 502.57 L 62.79 498.57 C 62.79 498.02 62.34 497.57 61.79 497.57 Z M 61.79 497.57 L 58.79 497.57 C 58.24 497.57 57.79 498.02 57.79 498.57 L 57.79 502.57 C 57.79 503.13 58.24 503.57 58.79 503.57 L 61.79 503.57 C 62.34 503.57 62.79 503.13 62.79 502.57 L 62.79 498.57 C 62.79 498.02 62.34 497.57 61.79 497.57 Z M 54.92 499.63 L 37.55 499.63 C 37 499.63 36.55 500.08 36.55 500.63 L 36.55 502.57 C 36.55 503.12 37 503.57 37.55 503.57 L 54.92 503.57 C 55.48 503.57 55.92 503.12 55.92 502.57 L 55.92 500.63 C 55.92 500.07 55.48 499.63 54.92 499.63 Z M 37.01 498.68 L 55.39 498.68 C 55.66 498.68 55.89 498.45 55.89 498.18 C 55.89 497.9 55.66 497.68 55.39 497.68 L 37.01 497.68 C 36.73 497.68 36.51 497.9 36.51 498.18 C 36.51 498.45 36.73 498.68 37.01 498.68 Z M 63.23 495.62 L 35.77 495.62 C 34.95 495.62 34.27 496.3 34.27 497.12 L 34.27 503.98 C 34.27 504.38 34.43 504.74 34.69 505.01 L 34.74 505.07 C 35.02 505.32 35.38 505.48 35.77 505.48 L 63.23 505.48 C 64.06 505.48 64.73 504.81 64.73 503.98 L 64.73 497.12 C 64.73 496.3 64.06 495.62 63.23 495.62 Z M 63.73 503.99 C 63.73 504.26 63.5 504.49 63.23 504.49 L 35.77 504.49 C 35.5 504.49 35.27 504.26 35.27 503.99 L 35.27 497.12 C 35.27 496.85 35.5 496.62 35.77 496.62 L 63.23 496.62 C 63.5 496.62 63.73 496.85 63.73 497.12 L 63.73 503.99 Z M 61.79 497.57 L 58.79 497.57 C 58.24 497.57 57.79 498.02 57.79 498.57 L 57.79 502.57 C 57.79 503.13 58.24 503.57 58.79 503.57 L 61.79 503.57 C 62.34 503.57 62.79 503.13 62.79 502.57 L 62.79 498.57 C 62.79 498.02 62.34 497.57 61.79 497.57 Z M 54.92 499.63 L 37.55 499.63 C 37 499.63 36.55 500.08 36.55 500.63 L 36.55 502.57 C 36.55 503.12 37 503.57 37.55 503.57 L 54.92 503.57 C 55.48 503.57 55.92 503.12 55.92 502.57 L 55.92 500.63 C 55.92 500.07 55.48 499.63 54.92 499.63 Z M 37.01 498.68 L 55.39 498.68 C 55.66 498.68 55.89 498.45 55.89 498.18 C 55.89 497.9 55.66 497.68 55.39 497.68 L 37.01 497.68 C 36.73 497.68 36.51 497.9 36.51 498.18 C 36.51 498.45 36.73 498.68 37.01 498.68 Z M 55.39 497.68 L 37.01 497.68 C 36.73 497.68 36.51 497.9 36.51 498.18 C 36.51 498.45 36.73 498.68 37.01 498.68 L 55.39 498.68 C 55.66 498.68 55.89 498.45 55.89 498.18 C 55.89 497.9 55.66 497.68 55.39 497.68 Z M 54.92 499.63 L 37.55 499.63 C 37 499.63 36.55 500.08 36.55 500.63 L 36.55 502.57 C 36.55 503.12 37 503.57 37.55 503.57 L 54.92 503.57 C 55.48 503.57 55.92 503.12 55.92 502.57 L 55.92 500.63 C 55.92 500.07 55.48 499.63 54.92 499.63 Z M 61.79 497.57 L 58.79 497.57 C 58.24 497.57 57.79 498.02 57.79 498.57 L 57.79 502.57 C 57.79 503.13 58.24 503.57 58.79 503.57 L 61.79 503.57 C 62.34 503.57 62.79 503.13 62.79 502.57 L 62.79 498.57 C 62.79 498.02 62.34 497.57 61.79 497.57 Z M 54.92 499.63 L 37.55 499.63 C 37 499.63 36.55 500.08 36.55 500.63 L 36.55 502.57 C 36.55 503.12 37 503.57 37.55 503.57 L 54.92 503.57 C 55.48 503.57 55.92 503.12 55.92 502.57 L 55.92 500.63 C 55.92 500.07 55.48 499.63 54.92 499.63 Z M 61.79 497.57 L 58.79 497.57 C 58.24 497.57 57.79 498.02 57.79 498.57 L 57.79 502.57 C 57.79 503.13 58.24 503.57 58.79 503.57 L 61.79 503.57 C 62.34 503.57 62.79 503.13 62.79 502.57 L 62.79 498.57 C 62.79 498.02 62.34 497.57 61.79 497.57 Z M 55.39 497.68 L 37.01 497.68 C 36.73 497.68 36.51 497.9 36.51 498.18 C 36.51 498.45 36.73 498.68 37.01 498.68 L 55.39 498.68 C 55.66 498.68 55.89 498.45 55.89 498.18 C 55.89 497.9 55.66 497.68 55.39 497.68 Z" fill="#000000" style="fill: light-dark(rgb(0, 0, 0), rgb(237, 237, 237));" stroke="none" pointer-events="all"/></g><g><g fill="#000000" style="fill: light-dark(rgb(0, 0, 0), rgb(255, 255, 255));" font-family="Helvetica" text-anchor="middle" font-size="12px"><text x="59.25" y="523.48">Promox node #2</text><text x="59.25" y="537.48"> 5 9500T + 16GB ddr4</text><text x="59.25" y="551.48">192.168.10.3 </text></g></g></g><g data-cell-id="eSsioj3msoAK2JKwmLl9-22"><g><path d="M 452.58 260.03 C 440.96 260 431.11 267 427.01 276.97 L 434.13 276.97 C 434.1 276.73 434.25 276.34 434.37 276.22 C 436.38 272.99 439.23 270.36 442.61 268.62 C 441.86 270.75 440.99 273.62 440.36 276.97 L 445.99 276.97 C 446.5 273.59 447.37 270 448.6 266.5 L 448.36 266.5 C 449.74 266.26 451.12 266.14 452.61 266.14 C 454.11 266.14 455.49 266.26 456.87 266.65 C 458.13 270.15 458.87 273.89 459.5 277.12 L 465.1 277.12 C 464.48 273.74 463.61 271.02 462.86 268.89 C 466.09 270.63 468.85 273.26 470.86 276.37 C 470.86 276.61 470.98 276.73 470.98 277 L 478.04 277 C 473.94 267.03 464.06 260.03 452.58 260.03 Z M 426.14 280.21 C 425.15 284.07 424.25 290.8 426.77 297.42 L 435.24 297.42 C 435.36 297.42 438.75 297.42 438.75 293.95 L 438.75 283.71 C 438.75 283.71 438.51 280.21 435.24 280.21 Z M 455.94 280.21 L 455.94 290.92 L 449.08 280.36 L 449.08 280.24 L 445.61 280.24 L 445.61 297.45 L 449.11 297.45 L 449.11 286.58 L 455.97 297.3 L 455.97 297.42 L 456.09 297.42 L 459.44 297.42 L 459.44 280.21 Z M 466.3 280.36 L 466.3 290.71 L 476.67 290.71 L 476.67 294.22 L 466.3 294.22 L 466.3 297.45 L 478.28 297.45 C 479.42 294.57 479.78 291.7 479.9 289.1 L 479.9 290.59 L 480.05 287.09 L 469.69 287.09 L 469.69 283.71 L 479.66 283.71 C 479.54 282.45 479.3 281.22 479.03 280.36 Z M 428.5 283.59 L 435.36 283.59 L 435.36 294.07 L 428.5 294.07 Z M 428.62 301.07 C 433.36 309.3 442.22 314.9 452.58 314.9 C 462.83 314.9 471.81 309.27 476.55 301.07 L 468.82 301.07 C 467.2 303.05 465.31 304.66 462.95 305.92 C 463.58 304.3 463.94 302.57 464.33 301.07 L 458.84 301.07 C 457.98 305.05 456.99 307.69 456.72 308.43 C 455.34 308.67 453.96 308.82 452.46 308.82 C 451.09 308.82 449.83 308.7 448.6 308.43 C 448.48 308.19 447.34 305.56 446.47 301.07 L 440.99 301.07 C 441.35 302.81 441.86 304.42 442.49 306.19 C 440 304.93 437.88 303.08 436.14 301.07 Z" fill="#ff6a00" style="fill: light-dark(rgb(255, 106, 0), rgb(233, 105, 14));" stroke="none" pointer-events="all"/></g><g><g><switch><foreignObject style="overflow: visible; text-align: left;" pointer-events="none" width="100%" height="100%" requiredFeatures="http://www.w3.org/TR/SVG11/feature#Extensibility"><div xmlns="http://www.w3.org/1999/xhtml" style="display: flex; align-items: unsafe flex-start; justify-content: unsafe center; width: 1px; height: 1px; padding-top: 322px; margin-left: 452px;"><div style="box-sizing: border-box; font-size: 0; text-align: center; color: #000000; "><div style="display: inline-block; font-size: 12px; font-family: Helvetica; color: light-dark(#000000, #ffffff); line-height: 1.2; pointer-events: all; white-space: nowrap; "><div align="center">PI HOLE LAN</div><div align="center">192.168.30.2</div></div></div></div></foreignObject><text x="452" y="334" fill="#000000" style="fill: light-dark(rgb(0, 0, 0), rgb(255, 255, 255));" font-family="Helvetica" font-size="12px" text-anchor="middle"><tspan x="452" y="334">PI HOLE LAN</tspan><tspan x="452" y="348">192.168.30.2</tspan></text></switch></g></g></g><g data-cell-id="eSsioj3msoAK2JKwmLl9-24"><g transform="translate(0.5,0.5)"><path d="M 285.25 380 L 285.25 340 L 373.71 340 L 373.71 288.91 L 416.32 288.88" fill="none" stroke="#000000" style="stroke: light-dark(rgb(0, 0, 0), rgb(255, 255, 255));" stroke-miterlimit="10" pointer-events="stroke"/><path d="M 421.57 288.88 L 414.57 292.38 L 416.32 288.88 L 414.57 285.38 Z" fill="#000000" style="fill: light-dark(rgb(0, 0, 0), rgb(255, 255, 255)); stroke: light-dark(rgb(0, 0, 0), rgb(255, 255, 255));" stroke="#000000" stroke-miterlimit="10" pointer-events="all"/></g></g><g data-cell-id="eSsioj3msoAK2JKwmLl9-25"><g><use href="#mx-image-i9bzw2" xlink:href="#mx-image-i9bzw2" x="195.25" y="530" width="80" height="80"/></g><g><g><switch><foreignObject style="overflow: visible; text-align: left;" pointer-events="none" width="100%" height="100%" requiredFeatures="http://www.w3.org/TR/SVG11/feature#Extensibility"><div xmlns="http://www.w3.org/1999/xhtml" style="display: flex; align-items: unsafe flex-start; justify-content: unsafe flex-end; width: 1px; height: 1px; padding-top: 617px; margin-left: 273px;"><div style="box-sizing: border-box; font-size: 0; text-align: right; color: #000000; background-color: #ffffff; "><div style="display: inline-block; font-size: 12px; font-family: Helvetica; color: light-dark(#000000, #ffffff); line-height: 1.2; pointer-events: all; background-color: var(--ge-adaptive-bg, #ffffff); white-space: nowrap; "><div>Main laptop with Debian</div><div>Gaiming laptop</div><div>192.168.20.199 -enx...</div><div><br /></div></div></div></div></foreignObject><text x="273" y="629" fill="#000000" style="fill: light-dark(rgb(0, 0, 0), rgb(255, 255, 255));" font-family="Helvetica" font-size="12px" text-anchor="end"><tspan x="273" y="629">Main laptop with Debian</tspan><tspan x="273" y="643">Gaiming laptop</tspan><tspan x="273" y="657">192.168.20.199 -enx...</tspan><tspan x="273" y="671"></tspan></text></switch></g></g></g><g data-cell-id="eSsioj3msoAK2JKwmLl9-26"><g><use href="#mx-image-i9bzw2" xlink:href="#mx-image-i9bzw2" x="363.15" y="470" width="80" height="80"/></g><g><g><switch><foreignObject style="overflow: visible; text-align: left;" pointer-events="none" width="100%" height="100%" requiredFeatures="http://www.w3.org/TR/SVG11/feature#Extensibility"><div xmlns="http://www.w3.org/1999/xhtml" style="display: flex; align-items: unsafe flex-start; justify-content: unsafe center; width: 1px; height: 1px; padding-top: 557px; margin-left: 403px;"><div style="box-sizing: border-box; font-size: 0; text-align: center; color: #000000; background-color: #ffffff; "><div style="display: inline-block; font-size: 12px; font-family: Helvetica; color: light-dark(#000000, #ffffff); line-height: 1.2; pointer-events: all; background-color: var(--ge-adaptive-bg, #ffffff); white-space: nowrap; "><div>Kali bare metal </div><div>T490</div><div>192.168.1.36 - wlan</div><div>192.168.10.10 - eth0</div></div></div></div></foreignObject><text x="403" y="569" fill="#000000" style="fill: light-dark(rgb(0, 0, 0), rgb(255, 255, 255));" font-family="Helvetica" font-size="12px" text-anchor="middle"><tspan x="403" y="569">Kali bare metal </tspan><tspan x="403" y="583">T490</tspan><tspan x="403" y="597">192.168.1.36 - wlan</tspan><tspan x="403" y="611">192.168.10.10 - eth0</tspan></text></switch></g></g></g></g></g></g><switch><g requiredFeatures="http://www.w3.org/TR/SVG11/feature#Extensibility"/><a transform="translate(0,-5)" xlink:href="https://www.drawio.com/doc/faq/svg-export-text-problems" target="_blank"><text text-anchor="middle" font-size="10px" x="50%" y="100%">Text is not SVG - cannot display</text></a></switch></svg>